<svg xmlns="http://www.w3.org/2000/svg" viewBox="0 0 796.81 78.23">
  <defs>
    <style>.a{fill:#241345;}.b{fill:#99d6d1;}</style>
  </defs>
  <path class="a" d="M57,16.11H20.19V30.56H57V46.67H20.19V61.23H57V77.34H0V0H57V16.11Z"/>
  <path class="a" d="M93.94,39.31l9.19-14.9h19.07L105.48,50.29l17.9,27.15H103.33L93.94,61.27,83.48,77.44H64.3l18-27.15L65.48,24.41h20Z"/><path class="a" d="M177.67,55.58H140.89c1.66,6,6.07,9.31,12,9.31a17.53,17.53,0,0,0,12.42-5.39l9.1,9.11C169.06,74.7,161.14,78,151.36,78c-17.31,0-28-10.68-28-26.86,0-16.47,11.05-27.35,27.58-27.35C169.45,23.83,178.84,36.27,177.67,55.58Zm-16.83-9.31c0-6.08-3.91-10.19-9.78-10.19-5.67,0-9.49,4.12-10.56,10.19h20.34Z"/>
  <path class="a" d="M233.42,36.37l-12.62,7.35a12.11,12.11,0,0,0-10.37-5.49c-6.26,0-10.56,5.19-10.56,12.84s4.31,12.84,10.56,12.84c4.6,0,8.22-1.86,10.37-6l12.81,7.35C229.42,73.42,220.81,78,209.56,78c-16.34,0-27.19-10.68-27.19-26.86,0-16.47,11-27.35,27.39-27.35C220.42,23.83,228.83,28.43,233.42,36.37Z"/>
  <path class="a" d="M293.29,24.41v53H275.88V68.81c-3.62,6.18-9.39,9.31-16.92,9.41-11.44,0-18.88-7.94-18.88-20.29V24.41h17.41V52.94c0,6,3.32,9.61,8.51,9.61,6.16-.1,9.88-5,9.88-12V24.41h17.41Z"/>
  <path class="a" d="M341,74.7a29.09,29.09,0,0,1-14.28,3.53c-10.27.1-17.7-6-17.7-17V38.53H301.7V27H309V12.26h17.31V27H340V38.53H326.35v20c0,3.92,1.76,5.68,4.79,5.59a18.24,18.24,0,0,0,6.55-1.76Z"/>
  <path class="a" d="M367.24,9.32c0,5.49-3.81,9.31-9.19,9.31s-9.19-3.82-9.19-9.31S352.66,0,358,0,367.24,3.83,367.24,9.32Zm-0.59,68.12H349.34v-53h17.31v53Z"/>
  <path class="a" d="M410.47,77.44h-17.9l-19.76-53h17.9l11.05,36.85,11.15-36.85h17.41Z"/>
  <path class="a" d="M484.42,55.58H447.64c1.66,6,6.07,9.31,12,9.31A17.52,17.52,0,0,0,472.1,59.5l9.1,9.11C475.82,74.7,467.89,78,458.11,78c-17.31,0-28-10.68-28-26.86,0-16.47,11.05-27.35,27.58-27.35C476.21,23.83,485.6,36.27,484.42,55.58ZM467.6,46.27c0-6.08-3.91-10.19-9.78-10.19-5.67,0-9.49,4.12-10.56,10.19H467.6Z"/>
  <path class="b" d="M585.45,12.41l-2.7,6a18.77,18.77,0,0,0-9.83-3.33c-2.89,0-5,1.06-5,3.76,0,7,18.19,3.19,18.13,16.88C586,43.49,579.8,47,572.92,47c-5,0-10.35-1.84-13.76-5.25l2.64-5.82a17.63,17.63,0,0,0,11.44,4.68c3.15,0,5.59-1.21,5.59-4,0-7.73-18-3.4-17.93-17,0-7.66,6-10.93,12.6-10.93A20.17,20.17,0,0,1,585.45,12.41Z"/>
  <path class="b" d="M612.84,44.27A15.32,15.32,0,0,1,604.42,47c-5.14,0-9.58-3.26-9.58-11V16.46H590v-6.1h4.82V0h7.33V10.36h10.09v6.1H602.17V34.55c0,3.9,1.35,5.11,3.66,5.11A11.1,11.1,0,0,0,611,38Z"/>
  <path class="b" d="M638.87,8.65v7.8C632,16.1,627.62,20.5,627,27V46.68h-7.39V8.94H627v7.52C629.36,11.35,633.47,8.65,638.87,8.65Z"/><path class="b" d="M677.44,27.81c0,11.35-7.26,19.15-17.81,19.15s-17.87-7.8-17.87-19.15S649,8.65,659.63,8.65,677.44,16.39,677.44,27.81Zm-28.28.07c0,7.31,4.31,12.27,10.48,12.27S670,35.19,670,27.88s-4.31-12.2-10.41-12.2S649.16,20.64,649.16,27.88Z"/><path class="b" d="M716,8.94V43c0,10.85-7,17.66-17.74,17.66a23.31,23.31,0,0,1-14.21-5l3.15-5.89a16.28,16.28,0,0,0,10.73,4.11c6.49,0,10.74-4.19,10.74-10.71V38.45a12.24,12.24,0,0,1-11.31,6.38c-9.26,0-15.43-7.38-15.43-18.23C681.94,16,688,8.73,697.11,8.65A12.44,12.44,0,0,1,708.68,15V8.94H716Zm-7.33,17.88c0-6.81-4.05-11.56-9.84-11.56s-9.9,4.82-10,11.56,4,11.63,10,11.63S708.68,33.63,708.68,26.82Z"/>
  <path class="b" d="M756.38,30.93H730.54c1.16,5.89,5.21,9.44,10.61,9.44a12.7,12.7,0,0,0,9.64-4.4l3.92,4.61A17.79,17.79,0,0,1,740.56,47c-10.54,0-17.49-7.73-17.49-19.08s7.13-19.15,17.29-19.22C752.39,8.65,757.28,17.31,756.38,30.93Zm-6.43-6c-0.26-6.1-3.92-9.79-9.51-9.79s-9.26,3.83-10,9.79h19.54Z"/>
  <path class="b" d="M796.81,23.2V46.68h-7.39V25.47c0-5.67-3.09-9.15-8.23-9.15-5.66.07-9.19,4.4-9.71,10.29V46.68h-7.39V8.94h7.39v7.24c2.44-5.25,6.81-7.52,12.6-7.52C792.05,8.65,796.81,14.19,796.81,23.2Z"/>
  <polygon class="b" points="549.28 61.23 549.28 77.33 537.4 61.23 549.28 61.23"/>
  <polygon class="b" points="549.28 30.56 549.28 46.67 526.66 46.67 514.78 30.56 549.28 30.56"/>
  <polygon class="b" points="549.28 0.01 549.28 16.11 512.44 16.11 512.44 27.38 492.25 0.01 549.28 0.01"/>
<polygon class="a" points="537.4 61.23 549.28 77.33 492.25 77.33 492.25 0.01 512.44 27.38 512.44 30.56 514.78 30.56 526.66 46.67 512.44 46.67 512.44 61.23 537.4 61.23"/>
</svg>
